<svg width="134" height="26" viewBox="0 0 134 26" fill="none" xmlns="http://www.w3.org/2000/svg">
<path fill-rule="evenodd" clip-rule="evenodd" d="M30.8072 0L43.8302 13L30.8072 26V19.017H17.9865L30.8072 9.58326V0ZM31.5553 1.80386V9.9616L20.2655 18.2689H31.5553V24.1961L42.7713 13L31.5553 1.80386Z" fill="#4E5299"/>
<path fill-rule="evenodd" clip-rule="evenodd" d="M13.0448 0.000854492V6.98276H25.8338L13.0448 16.5007V25.9986L0 12.9997L13.0448 0.000854492ZM1.05986 12.9997L12.2967 24.197V16.1249L23.5756 7.73087H12.2967V1.80247L1.05986 12.9997Z" fill="#8B8CFB"/>
<path d="M61.2982 10.3495V7.82727H52.2353V10.4564H57.4294L52.1071 16.3771V19.049H61.3837V16.3985H55.8263L61.2982 10.3495Z" fill="white" fill-opacity="0.9"/>
<path d="M74.0589 7.82729H70.1046L66.2144 11.9954V2.52637H63.1792V19.049H66.2144V16.0779L67.4755 14.7527L70.4466 19.049H74.1658L69.5702 12.5511L74.0589 7.82729Z" fill="white" fill-opacity="0.9"/>
<path d="M82.9722 9.62287L80.7064 9.19538C79.5308 8.96026 78.9537 8.36177 78.9537 7.37853C78.9537 6.82279 79.1889 6.33117 79.6591 5.94643C80.1293 5.54031 80.7492 5.32656 81.4759 5.32656C82.395 5.32656 83.079 5.56168 83.5493 6.03192C84.0195 6.50217 84.3188 7.03653 84.4256 7.61365L87.2471 6.73729C87.1402 6.24567 86.9692 5.75405 86.7127 5.30519C86.4776 4.85632 86.1356 4.40745 85.6868 3.97995C85.2379 3.53108 84.6608 3.18909 83.934 2.93259C83.2073 2.6761 82.3737 2.54785 81.4546 2.54785C79.8942 2.54785 78.569 3.03947 77.4575 4.00133C76.3674 4.98456 75.8117 6.18154 75.8117 7.61365C75.8117 8.81063 76.1964 9.81525 76.9445 10.6275C77.714 11.4397 78.74 11.9741 80.0438 12.252L82.3095 12.7008C82.9294 12.8291 83.421 13.0642 83.7417 13.4062C84.0837 13.7482 84.276 14.1329 84.276 14.6245C84.276 15.223 84.0409 15.6933 83.5707 16.0567C83.1218 16.42 82.4806 16.6124 81.6469 16.6124C80.5568 16.6124 79.7232 16.3131 79.1033 15.736C78.5049 15.1589 78.1842 14.4322 78.0987 13.5772L75.1704 14.3467C75.2345 14.9452 75.4055 15.5437 75.662 16.1208C75.9613 16.6765 76.346 17.2323 76.859 17.7453C77.3506 18.2369 78.0132 18.643 78.8469 18.9636C79.6591 19.2629 80.5996 19.4125 81.6042 19.4125C83.3783 19.4125 84.789 18.9209 85.8577 17.9376C86.9265 16.933 87.4608 15.7574 87.4608 14.4322C87.4608 13.2566 87.0547 12.252 86.2639 11.3756C85.5158 10.4779 84.4043 9.90075 82.9722 9.62287Z" fill="white" fill-opacity="0.9"/>
<path d="M93.6594 14.3893L90.667 7.82727H87.2684L92.035 17.6383L89.3845 23.4735H92.6121L99.6658 7.82727H96.4168L93.6594 14.3893Z" fill="white" fill-opacity="0.9"/>
<path d="M106.997 7.52808C106.335 7.52808 105.715 7.6777 105.116 7.95557C104.518 8.25482 104.069 8.66093 103.748 9.21667V7.82731H100.799V19.049H103.834V12.5939C103.834 11.9313 104.026 11.3755 104.411 10.9266C104.796 10.4778 105.309 10.264 105.95 10.264C106.655 10.264 107.168 10.4778 107.51 10.8839C107.852 11.29 108.045 11.8244 108.045 12.5084V19.049H111.08V11.974C111.08 10.6702 110.738 9.60141 110.032 8.78917C109.327 7.95556 108.322 7.52808 106.997 7.52808Z" fill="white" fill-opacity="0.9"/>
<path d="M121.105 14.71C120.955 15.223 120.656 15.6718 120.228 16.0566C119.801 16.42 119.224 16.6123 118.518 16.6123C117.706 16.6123 117.022 16.3345 116.466 15.7787C115.91 15.2016 115.654 14.4321 115.654 13.4489C115.654 12.4656 115.932 11.7175 116.466 11.1404C117.022 10.5847 117.685 10.3068 118.497 10.3068C119.779 10.3068 120.613 10.948 120.976 12.2091L123.691 11.29C123.434 10.2427 122.857 9.34494 121.938 8.6182C121.019 7.87009 119.865 7.50671 118.433 7.50671C116.787 7.50671 115.397 8.06246 114.286 9.19532C113.175 10.3282 112.619 11.7389 112.619 13.4489C112.619 15.1588 113.175 16.5696 114.307 17.7024C115.44 18.8353 116.851 19.391 118.54 19.391C119.929 19.391 121.105 19.0277 122.002 18.2796C122.921 17.5314 123.498 16.6551 123.776 15.6077L121.105 14.71Z" fill="white" fill-opacity="0.9"/>
<path d="M123.285 6.41658V1.03015H124.354V6.41658H123.285Z" fill="#8B8CFB"/>
<path d="M125.465 2.05613V1.03015H126.576V2.05613H125.465ZM125.486 6.41658V2.61188H126.555V6.41658H125.486Z" fill="#8B8CFB"/>
<path d="M127.068 3.42419V2.59057H129.612V3.42419H127.068ZM127.731 6.41665V1.54321H128.799V6.41665H127.731Z" fill="#8B8CFB"/>
<path d="M131.984 6.50206C131.642 6.50206 131.343 6.43793 131.108 6.33106C130.873 6.22419 130.659 6.07457 130.509 5.8822C130.36 5.68982 130.253 5.49745 130.167 5.26232C130.103 5.0272 130.061 4.79208 130.061 4.53559C130.061 4.30047 130.103 4.04397 130.167 3.80885C130.232 3.57373 130.338 3.35998 130.488 3.16761C130.638 2.97524 130.83 2.82561 131.065 2.69736C131.3 2.59049 131.578 2.52637 131.92 2.52637C132.219 2.52637 132.476 2.56912 132.69 2.67599C132.903 2.78287 133.096 2.91111 133.245 3.10349C133.395 3.27448 133.502 3.48823 133.587 3.72335C133.651 3.95847 133.694 4.21496 133.694 4.51421C133.694 4.55696 133.694 4.62109 133.694 4.68521C133.694 4.74934 133.694 4.81346 133.673 4.89896H131.129C131.151 5.13408 131.258 5.30508 131.429 5.43333C131.6 5.5402 131.792 5.60432 132.048 5.60432C132.241 5.60432 132.433 5.56157 132.626 5.49745C132.818 5.43332 132.989 5.32645 133.117 5.21958L133.609 5.96769C133.416 6.09594 133.245 6.20282 133.074 6.28831C132.903 6.37381 132.754 6.43793 132.583 6.45931C132.39 6.48068 132.198 6.50206 131.984 6.50206ZM132.647 4.34322C132.647 4.30047 132.668 4.25772 132.668 4.21497C132.668 4.17222 132.69 4.12947 132.69 4.10809C132.69 4.00122 132.668 3.91572 132.626 3.83022C132.583 3.74473 132.54 3.6806 132.476 3.61648C132.412 3.55235 132.326 3.5096 132.241 3.46685C132.155 3.4241 132.048 3.42411 131.942 3.42411C131.771 3.42411 131.621 3.46686 131.493 3.53098C131.386 3.5951 131.279 3.6806 131.236 3.78747C131.172 3.89435 131.129 4.00122 131.129 4.10809H133.032L132.647 4.34322Z" fill="#8B8CFB"/>
</svg>
